<svg width="464" height="73" viewBox="0 0 464 73" fill="none" xmlns="http://www.w3.org/2000/svg">
<path d="M118.006 63.4887C102.745 63.4887 93.8921 52.5979 93.8921 36.2618C93.8921 19.853 103.322 9.41599 118.437 9.41599C130.027 9.41599 138.304 16.0367 140.391 27.6943H131.597C130.013 20.6426 124.904 16.8989 118.138 16.8989C109.861 16.8989 103.308 23.6693 103.308 36.2618C103.308 48.9314 109.716 55.9831 118.065 55.9831C125.117 55.9831 130.158 52.312 131.742 45.1877H140.536C138.376 56.868 130.027 63.4887 118.006 63.4887Z" fill="#007BFF"/>
<path d="M166.025 22.9659C175.382 22.9659 179.185 29.0103 179.185 38.2221V62.5539H170.622V40.3186C170.622 35.0592 169.842 29.9496 163.289 29.9496C156.736 29.9496 154.286 34.9866 154.286 41.9658V62.5539H145.728V10.3689H154.286V29.2281C156.523 25.194 160.639 22.9659 166.025 22.9659Z" fill="#007BFF"/>
<path d="M221.155 23.8281V62.5539H212.593V57.4443C210.287 61.2561 206.24 63.4887 201.076 63.4887C191.356 63.4887 184.231 55.6428 184.231 43.191C184.231 30.7392 191.356 22.9659 201.076 22.9659C206.258 22.9659 210.287 25.194 212.593 29.0103V23.8281H221.155ZM193.157 43.191C193.157 51.3954 196.683 56.505 202.945 56.505C208.558 56.505 212.928 52.1169 212.928 43.191C212.928 34.2651 208.558 29.9497 202.945 29.9497C196.683 29.9497 193.157 34.9866 193.157 43.191Z" fill="#007BFF"/>
<path d="M264.197 23.0431C273.554 23.0431 277.356 29.0875 277.356 38.2993V62.622H268.803V40.3867C268.803 35.1319 268.013 30.0223 261.46 30.0223C254.908 30.0223 252.462 35.0593 252.462 42.0384V62.622H243.899V23.9053H252.462V29.3053C254.694 25.2757 258.797 23.0431 264.197 23.0431Z" fill="#007BFF"/>
<path d="M298.376 29.5912C294.632 29.5912 291.179 31.2475 291.179 33.8386C291.179 36.4297 293.048 37.7956 296.361 38.4445L301.833 39.5245C309.675 41.0356 315.651 43.4815 315.651 51.0415C315.651 59.1052 308.023 63.5659 299.238 63.5659C289.74 63.5659 283.405 58.1659 282.47 50.8237H290.82C291.61 54.7852 294.491 57.0904 299.528 57.0904C303.989 57.0904 307.301 55.2163 307.301 52.0489C307.301 48.8815 304.424 47.443 300.608 46.7215L294.777 45.5734C288.229 44.2756 283.115 41.326 283.115 34.2697C283.115 27.4312 290.457 23.0431 298.879 23.0431C306.439 23.0431 313.346 26.7142 314.93 34.4875H306.87C305.936 30.9616 302.696 29.5912 298.376 29.5912Z" fill="#007BFF"/>
<path d="M332.387 13.6861V23.9053H340.16V30.0949H332.387V51.1867C332.387 55.1437 333.321 56.0784 336.992 56.0784H340.087V62.622H333.734C325.457 62.622 323.801 60.3894 323.801 52.4709V30.0949H318.061V23.9053H323.819V13.6861H332.387Z" fill="#007BFF"/>
<path d="M381.395 23.9053V62.622H372.828V57.5215C370.527 61.3333 366.475 63.5659 361.311 63.5659C351.595 63.5659 344.466 55.72 344.466 43.2682C344.466 30.8164 351.595 23.0431 361.311 23.0431C366.493 23.0431 370.527 25.2757 372.828 29.0875V23.9053H381.395ZM353.397 43.2682C353.397 51.4726 356.923 56.5822 363.185 56.5822C368.798 56.5822 373.168 52.1941 373.168 43.2682C373.168 34.3423 368.78 30.0268 363.185 30.0268C356.923 30.0268 353.397 35.0638 353.397 43.2682Z" fill="#007BFF"/>
<path d="M415.007 37.1512C414.303 33.0445 410.673 30.1675 406.008 30.1675C400.685 30.1675 395.862 34.129 395.862 43.2682C395.862 52.48 400.753 56.4279 405.795 56.4279C409.965 56.4279 414.213 54.5537 415.293 49.3716H423.642C421.918 58.4472 413.927 63.5523 405.65 63.5523C394.419 63.5523 387.008 54.8442 387.008 43.3272C387.008 31.8102 394.491 23.0295 406.008 23.0295C414.43 23.0295 421.918 28.4749 423.356 37.1376L415.007 37.1512Z" fill="#007BFF"/>
<path d="M437.265 39.4519L451.586 23.9053H461.878L447.053 39.8149L463.534 62.622H453.551L441.39 45.832L437.306 50.2247V62.622H428.697V10.437H437.265V39.4519Z" fill="#007BFF"/>
<path d="M236.965 62.5539H228.398V23.8281H236.965V62.5539Z" fill="#007BFF"/>
<path d="M232.681 21.0873C235.899 21.0873 238.508 18.4786 238.508 15.2607C238.508 12.0428 235.899 9.43414 232.681 9.43414C229.464 9.43414 226.855 12.0428 226.855 15.2607C226.855 18.4786 229.464 21.0873 232.681 21.0873Z" fill="#007BFF"/>
<path d="M52.1396 52.1396H16.6447C15.408 52.142 14.183 51.9004 13.0399 51.4285C11.8968 50.9566 10.858 50.2638 9.98319 49.3896L2.72267 42.1291C0.974134 40.3662 -0.0048427 37.9824 -2.68174e-05 35.4994V16.6447C-0.00251081 15.408 0.239118 14.183 0.711007 13.0399C1.1829 11.8967 1.87577 10.858 2.74989 9.98317L10.0104 2.72265C11.775 0.973851 14.1603 -0.00506712 16.6447 -4.1782e-05H52.1396V10.437H19.8167C17.3297 10.4394 14.9454 11.4283 13.1869 13.1869C11.4284 14.9454 10.4394 17.3297 10.437 19.8166V32.3229C10.437 34.8114 11.4249 37.1981 13.1837 38.9585C14.9424 40.719 17.3282 41.7092 19.8167 41.7116H52.1396V52.1396Z" fill="#007BFF"/>
<path d="M20.874 20.874H56.3734C58.8533 20.8716 61.2334 21.8504 62.9941 23.5967L70.2546 30.8572C72.0153 32.6179 73.0045 35.006 73.0045 37.496V56.3507C73.0045 58.8408 72.0153 61.2288 70.2546 62.9895L62.9941 70.2501C61.2334 72.0108 58.8453 73 56.3552 73H20.874V62.563H53.1969C55.687 62.563 58.075 61.5738 59.8358 59.8131C61.5965 58.0524 62.5857 55.6643 62.5857 53.1742V40.6725C62.5857 38.1825 61.5965 35.7944 59.8358 34.0337C58.075 32.2729 55.687 31.2838 53.1969 31.2838H20.874V20.874Z" fill="#007BFF"/>
</svg>
