<svg width="231" height="26" viewBox="0 0 231 26" fill="none" xmlns="http://www.w3.org/2000/svg">
<path d="M42.0296 22.6124C36.5943 22.6124 33.441 18.7335 33.441 12.9151C33.441 7.07092 36.7995 3.35364 42.1831 3.35364C46.3109 3.35364 49.2589 5.71169 50.0024 9.86374H46.8701C46.3061 7.35214 44.4862 6.01877 42.0765 6.01877C39.1285 6.01877 36.7947 8.43016 36.7947 12.9151C36.7947 17.4276 39.0768 19.9392 42.0506 19.9392C44.5622 19.9392 46.3578 18.6317 46.9219 16.0942H50.0541C49.2848 20.2544 46.3109 22.6124 42.0296 22.6124Z" fill="#007BFF"/>
<path d="M59.1323 8.17966C62.465 8.17966 63.8193 10.3325 63.8193 13.6134V22.2795H60.7695V14.3601C60.7695 12.4869 60.4916 10.667 58.1578 10.667C55.8239 10.667 54.9512 12.461 54.9512 14.9467V22.2795H51.903V3.69305H54.9512V10.41C55.748 8.97322 57.2139 8.17966 59.1323 8.17966Z" fill="#007BFF"/>
<path d="M78.7677 8.48674V22.2795H75.7179V20.4596C74.8969 21.8172 73.4552 22.6124 71.616 22.6124C68.154 22.6124 65.6166 19.818 65.6166 15.3831C65.6166 10.9482 68.154 8.17966 71.616 8.17966C73.4617 8.17966 74.8969 8.97322 75.7179 10.3325V8.48674H78.7677ZM68.7957 15.3831C68.7957 18.3052 70.0515 20.1251 72.2818 20.1251C74.2811 20.1251 75.8375 18.5622 75.8375 15.3831C75.8375 12.204 74.2811 10.667 72.2818 10.667C70.0515 10.667 68.7957 12.461 68.7957 15.3831Z" fill="#007BFF"/>
<path d="M94.0974 8.20712C97.4301 8.20712 98.7845 10.3599 98.7845 13.6408V22.3037H95.7379V14.3843C95.7379 12.5127 95.4567 10.6929 93.1229 10.6929C90.789 10.6929 89.9179 12.4869 89.9179 14.9726V22.3037H86.8681V8.5142H89.9179V10.4375C90.7131 9.0023 92.1741 8.20712 94.0974 8.20712Z" fill="#007BFF"/>
<path d="M106.271 10.5393C104.937 10.5393 103.707 11.1292 103.707 12.0521C103.707 12.9749 104.373 13.4614 105.553 13.6925L107.502 14.0772C110.295 14.6154 112.424 15.4865 112.424 18.1792C112.424 21.0512 109.707 22.6399 106.578 22.6399C103.195 22.6399 100.939 20.7166 100.606 18.1016H103.58C103.861 19.5125 104.887 20.3336 106.681 20.3336C108.27 20.3336 109.45 19.6661 109.45 18.5379C109.45 17.4098 108.425 16.8975 107.066 16.6405L104.989 16.2316C102.657 15.7694 100.835 14.7188 100.835 12.2056C100.835 9.77 103.45 8.20712 106.45 8.20712C109.143 8.20712 111.603 9.51464 112.167 12.2832H109.296C108.963 11.0274 107.809 10.5393 106.271 10.5393Z" fill="#007BFF"/>
<path d="M118.384 4.87448V8.51419H121.153V10.7187H118.384V18.2308C118.384 19.6402 118.717 19.9731 120.025 19.9731H121.127V22.3037H118.864C115.916 22.3037 115.326 21.5085 115.326 18.6882V10.7187H113.282V8.51419H115.333V4.87448H118.384Z" fill="#007BFF"/>
<path d="M135.839 8.5142V22.3037H132.788V20.4871C131.968 21.8447 130.525 22.6399 128.686 22.6399C125.226 22.6399 122.687 19.8455 122.687 15.4106C122.687 10.9757 125.226 8.20712 128.686 8.20712C130.532 8.20712 131.968 9.0023 132.788 10.3599V8.5142H135.839ZM125.867 15.4106C125.867 18.3327 127.123 20.1525 129.353 20.1525C131.353 20.1525 132.909 18.5897 132.909 15.4106C132.909 12.2315 131.346 10.6945 129.353 10.6945C127.123 10.6945 125.867 12.4885 125.867 15.4106Z" fill="#007BFF"/>
<path d="M147.811 13.2319C147.56 11.7692 146.267 10.7446 144.606 10.7446C142.71 10.7446 140.992 12.1555 140.992 15.4106C140.992 18.6915 142.734 20.0976 144.53 20.0976C146.015 20.0976 147.528 19.4301 147.912 17.5844H150.886C150.272 20.8168 147.426 22.635 144.478 22.635C140.478 22.635 137.839 19.5335 137.839 15.4316C137.839 11.3296 140.504 8.20227 144.606 8.20227C147.605 8.20227 150.272 10.1417 150.784 13.2271L147.811 13.2319Z" fill="#007BFF"/>
<path d="M155.738 14.0513L160.839 8.5142H164.504L159.224 14.1806L165.094 22.3037H161.539L157.207 16.3237L155.753 17.8882V22.3037H152.687V3.71729H155.738V14.0513Z" fill="#007BFF"/>
<path d="M84.3986 22.2795H81.3472V8.48672H84.3986V22.2795Z" fill="#007BFF"/>
<path d="M82.8729 7.51054C84.019 7.51054 84.9481 6.58143 84.9481 5.43532C84.9481 4.28921 84.019 3.36011 82.8729 3.36011C81.7267 3.36011 80.7976 4.28921 80.7976 5.43532C80.7976 6.58143 81.7267 7.51054 82.8729 7.51054Z" fill="#007BFF"/>
<path d="M18.5702 18.5702H5.92821C5.48774 18.5711 5.05144 18.485 4.6443 18.317C4.23715 18.1489 3.86719 17.9021 3.55561 17.5908L0.969673 15.0049C0.346907 14.377 -0.00176953 13.5279 -5.42827e-05 12.6436V5.92821C-0.000938993 5.48774 0.0851205 5.05144 0.253191 4.6443C0.421261 4.23715 0.668036 3.86719 0.97937 3.55561L3.56531 0.969673C4.1938 0.346812 5.04336 -0.00184403 5.92821 -5.41779e-05H18.5702V3.71723H7.05794C6.17219 3.71809 5.32297 4.07033 4.69665 4.69665C4.07033 5.32297 3.71809 6.17219 3.71723 7.05794V11.5122C3.71723 12.3985 4.0691 13.2486 4.69551 13.8756C5.32192 14.5026 6.17163 14.8553 7.05794 14.8562H18.5702V18.5702Z" fill="#007BFF"/>
<path d="M7.43457 7.43457H20.0782C20.9614 7.43371 21.8091 7.78232 22.4362 8.4043L25.0222 10.9902C25.6493 11.6173 26.0016 12.4679 26.0016 13.3548V20.0701C26.0016 20.957 25.6493 21.8075 25.0222 22.4346L22.4362 25.0206C21.8091 25.6477 20.9586 26 20.0717 26H7.43457V22.2827H18.9468C19.8337 22.2827 20.6843 21.9304 21.3114 21.3033C21.9385 20.6762 22.2908 19.8256 22.2908 18.9388V14.4861C22.2908 13.5992 21.9385 12.7487 21.3114 12.1216C20.6843 11.4945 19.8337 11.1422 18.9468 11.1422H7.43457V7.43457Z" fill="#007BFF"/>
<path d="M176.098 3.70001H171V22.3653H176.098C182.019 22.3653 186.524 20.3057 186.524 13.0198C186.524 5.73389 182.019 3.70001 176.098 3.70001ZM175.943 6.32603C179.522 6.32603 183.126 7.12413 183.126 13.0198C183.126 18.9412 179.522 19.7393 175.943 19.7393H174.27V6.32603H175.943Z" fill="#76777B"/>
<path d="M202.32 15.4656C202.32 10.471 198.87 8.20543 195.497 8.20543C192.124 8.20543 188.675 10.471 188.675 15.4656C188.675 20.4602 192.124 22.7 195.497 22.7C198.87 22.7 202.32 20.4602 202.32 15.4656ZM195.497 20.2027C193.566 20.2027 191.841 18.658 191.841 15.4656C191.841 12.2732 193.566 10.7027 195.497 10.7027C197.428 10.7027 199.153 12.2732 199.153 15.4656C199.153 18.658 197.428 20.2027 195.497 20.2027Z" fill="#76777B"/>
<path d="M217.037 13.2515C216.522 10.1621 213.845 8.20543 210.832 8.20543C206.713 8.20543 204.036 11.3464 204.036 15.4656C204.036 19.5848 206.687 22.7 210.704 22.7C213.664 22.7 216.522 20.8721 217.14 17.6282H214.153C213.767 19.4819 212.248 20.1512 210.755 20.1512C208.953 20.1512 207.202 18.7352 207.202 15.4398C207.202 12.1702 208.927 10.7542 210.832 10.7542C212.506 10.7542 213.793 11.784 214.05 13.2515H217.037Z" fill="#76777B"/>
<path d="M227.575 12.2989H230.458C229.892 9.51844 227.42 8.20543 224.717 8.20543C221.705 8.20543 219.079 9.77589 219.079 12.2217C219.079 14.7447 220.907 15.8003 223.25 16.2637L225.335 16.6756C226.699 16.9331 227.729 17.448 227.729 18.5808C227.729 19.7136 226.545 20.3829 224.949 20.3829C223.147 20.3829 222.117 19.5591 221.834 18.1431H218.847C219.182 20.7691 221.447 22.7 224.846 22.7C227.987 22.7 230.716 21.1038 230.716 18.2203C230.716 15.5171 228.579 14.6417 225.773 14.1011L223.816 13.7149C222.632 13.4832 221.962 12.9941 221.962 12.0672C221.962 11.1404 223.198 10.5483 224.537 10.5483C226.082 10.5483 227.24 11.0374 227.575 12.2989Z" fill="#76777B"/>
</svg>
